<svg xmlns="http://www.w3.org/2000/svg" xmlns:xlink="http://www.w3.org/1999/xlink"><symbol id="icon-logo" viewBox="0 0 100 25">
<path d="M8.79262 25C7.06074 25 5.53475 24.6841 4.21464 24.0523C2.90665 23.4084 1.87721 22.3938 1.12633 21.0088C0.375442 19.6237 0 17.8559 0 15.7053V7.87985C0 6.67588 0.976013 5.69987 2.17999 5.69987C3.38396 5.69987 4.35997 6.67588 4.35997 7.87986V15.5777C4.35997 17.3152 4.72936 18.6395 5.46813 19.5508C6.21902 20.4499 7.32112 20.8994 8.77445 20.8994C10.2278 20.8994 11.3238 20.4438 12.0626 19.5325C12.8014 18.6213 13.1708 17.303 13.1708 15.5777V7.88894C13.1708 6.67995 14.1508 5.69987 15.3598 5.69987C16.5688 5.69987 17.5489 6.67995 17.5489 7.88894V15.7053C17.5489 17.8559 17.1735 19.6237 16.4226 21.0088C15.6717 22.3817 14.6422 23.3901 13.3343 24.0341C12.0263 24.678 10.5124 25 8.79262 25Z" fill="white"/>
<path d="M20.5369 2.1985C20.5369 0.984494 21.521 0.00034714 22.735 0.00034714C23.949 0.00034714 24.9332 0.984494 24.9332 2.1985V22.2369C24.9332 23.4509 23.949 24.435 22.735 24.435C21.521 24.435 20.5369 23.4509 20.5369 22.2369V2.1985Z" fill="white"/>
<path d="M34.2336 24.435C32.4533 24.435 30.9757 23.943 29.8009 22.9588C28.6262 21.9625 28.0388 20.0793 28.0388 17.3091V9.49064V5.69987V2.21645C28.0388 1.00956 29.0119 0.028382 30.2187 0.018376C31.4398 0.00825193 32.4351 0.995324 32.4351 2.21645V5.69987H36.135C37.1818 5.69987 38.0304 6.54846 38.0304 7.59525C38.0304 8.64205 37.1818 9.49064 36.135 9.49064H32.4351V17.5096C32.4351 19.6844 33.3374 20.7718 35.1419 20.7718H36.1988C37.2104 20.7718 38.0304 21.5919 38.0304 22.6034C38.0304 23.615 37.2104 24.435 36.1988 24.435H34.2336Z" fill="white"/>
<path d="M42.867 5.09446C42.0435 5.09446 41.5606 4.85753 41.064 4.38369C40.5796 3.89769 40.3374 3.2902 40.3374 2.5612C40.3374 1.84436 40.5796 1.24901 41.064 0.775164C41.5606 0.289168 42.0495 0.0461697 42.8852 0.0461697C43.733 0.0461697 44.228 0.289168 44.7245 0.775164C45.2211 1.24901 45.4693 1.84436 45.4693 2.5612C45.4693 3.30235 45.2211 3.90984 44.7245 4.38369C44.228 4.85753 43.7269 5.09446 42.867 5.09446ZM40.7052 7.89802C40.7052 6.68402 41.6894 5.69987 42.9034 5.69987C44.1174 5.69987 45.1015 6.68402 45.1015 7.89802V22.2369C45.1015 23.4509 44.1174 24.435 42.9034 24.435C41.6894 24.435 40.7052 23.4509 40.7052 22.2369V7.89802Z" fill="white"/>
<path d="M71.379 5.1349C73.6922 5.1349 75.4362 5.92464 76.611 7.50413C77.7979 9.08362 78.3913 11.3617 78.3913 14.3385V22.2641C78.3913 23.4631 77.4194 24.435 76.2204 24.435C75.0214 24.435 74.0495 23.4631 74.0495 22.2641V14.4296C74.0495 12.6435 73.7043 11.3253 73.014 10.4748C72.3358 9.62429 71.3669 9.19904 70.1074 9.19904C69.3201 9.19904 68.5814 9.44204 67.891 9.92804C67.2007 10.4019 66.6436 11.0701 66.2197 11.9328C65.8079 12.7954 65.602 13.7735 65.602 14.867V22.2641C65.602 23.4631 64.6301 24.435 63.4311 24.435C62.2322 24.435 61.2602 23.4631 61.2602 22.2641V14.4296C61.2602 12.6435 60.9151 11.3253 60.2247 10.4748C59.5465 9.62429 58.5837 9.19904 57.3363 9.19904C56.549 9.19904 55.8103 9.44204 55.1199 9.92804C54.4296 10.4019 53.8725 11.0701 53.4486 11.9328C53.0368 12.7954 52.831 13.7735 52.831 14.867V22.2641C52.831 23.4631 51.859 24.435 50.66 24.435C49.4611 24.435 48.4891 23.4631 48.4891 22.2641V7.77187C48.4891 6.62754 49.4168 5.69987 50.5611 5.69987C51.6904 5.69987 52.6117 6.60411 52.6328 7.73315L52.6493 8.61585C53.1458 7.59525 53.927 6.76299 54.9928 6.11904C56.0585 5.46295 57.2636 5.1349 58.6079 5.1349C60.1581 5.1349 61.454 5.49332 62.4956 6.21017C63.5371 6.92701 64.3183 7.97798 64.8391 9.36307C65.6263 7.94153 66.5709 6.88449 67.673 6.19194C68.7872 5.48725 70.0226 5.1349 71.379 5.1349Z" fill="white"/>
<path d="M89.1001 25C87.453 25 85.9572 24.5565 84.6129 23.6696C83.2686 22.7826 82.2149 21.5798 81.4519 20.0611C80.6889 18.5423 80.3074 16.8778 80.3074 15.0674C80.3074 13.2693 80.6889 11.6108 81.4519 10.0921C82.227 8.57332 83.2807 7.37048 84.6129 6.48354C85.9572 5.58444 87.4469 5.1349 89.0819 5.1349C90.6079 5.1349 91.9583 5.46902 93.133 6.13727C94.3199 6.79336 95.2161 7.7046 95.8217 8.871V7.78902C95.8217 6.63521 96.757 5.69987 97.9108 5.69987C99.0647 5.69987 100 6.63522 100 7.78902V22.3459C100 23.4997 99.0647 24.435 97.9108 24.435C96.757 24.435 95.8217 23.4997 95.8217 22.3459V21.2821C95.2161 22.4485 94.3199 23.3598 93.133 24.0159C91.9583 24.672 90.6139 25 89.1001 25ZM90.1537 20.9176C91.1589 20.9176 92.0794 20.6625 92.915 20.1522C93.7628 19.6297 94.4289 18.925 94.9134 18.0381C95.3978 17.139 95.64 16.1488 95.64 15.0674C95.64 13.9983 95.3917 13.0202 94.8952 12.1332C94.4108 11.2342 93.7507 10.5234 92.915 10.0009C92.0794 9.47849 91.1589 9.21727 90.1537 9.21727C89.1485 9.21727 88.2281 9.46634 87.3924 9.96449C86.5567 10.4505 85.8906 11.137 85.3941 12.0239C84.9096 12.9108 84.6674 13.9254 84.6674 15.0674C84.6674 16.246 84.9157 17.2787 85.4122 18.1657C85.9088 19.0526 86.5749 19.733 87.4106 20.2069C88.2462 20.6807 89.1606 20.9176 90.1537 20.9176Z" fill="white"/>
</symbol></svg>